# xmcd
#
# Track frame offsets: 
#        150
#        20534
#        40267
#        51722
#
# Disc length: 985 seconds
#
# Revision: 0
# Processed by: cddbd v1.5.2PL0 Copyright (c) Steve Scherf et al.
# Submitted via: ExactAudioCopy v0.99pb4
#
DISCID=3303d704
DTITLE=Joe and the blues band - Joe and the blues band
DYEAR=2012
DGENRE=Blues
TTITLE0=Kassy
TTITLE1=Le rêve accroché
TTITLE2=Pulsions magnétiques
TTITLE3=Envie de prendre
EXTD=
EXTT0=
EXTT1=
EXTT2=
EXTT3=
PLAYORDER=
